<?xml version="1.0" encoding="us-ascii" standalone="no"?><svg xmlns="http://www.w3.org/2000/svg" xmlns:xlink="http://www.w3.org/1999/xlink" contentStyleType="text/css" height="707px" preserveAspectRatio="none" style="width:1811px;height:707px;background:#FFFFFF;" version="1.1" viewBox="0 0 1811 707" width="1811px" zoomAndPan="magnify"><defs/><g><!--cluster specification_template--><g id="cluster_specification_template"><path d="M8.5,6 L172.5,6 A3.75,3.75 0 0 1 175,8.5 L182,28.4883 L1801.5,28.4883 A2.5,2.5 0 0 1 1804,30.9883 L1804,698.41 A2.5,2.5 0 0 1 1801.5,700.91 L8.5,700.91 A2.5,2.5 0 0 1 6,698.41 L6,8.5 A2.5,2.5 0 0 1 8.5,6 " fill="none" style="stroke:#000000;stroke-width:1.5;"/><line style="stroke:#000000;stroke-width:1.5;" x1="6" x2="182" y1="28.4883" y2="28.4883"/><text fill="#000000" font-family="sans-serif" font-size="14" font-weight="bold" lengthAdjust="spacing" textLength="163" x="10" y="21.5352">specification_template</text></g><!--cluster testable--><g id="cluster_testable"><path d="M646.5,213.96 L705.5,213.96 A3.75,3.75 0 0 1 708,216.46 L715,236.4483 L1777.5,236.4483 A2.5,2.5 0 0 1 1780,238.9483 L1780,674.41 A2.5,2.5 0 0 1 1777.5,676.91 L646.5,676.91 A2.5,2.5 0 0 1 644,674.41 L644,216.46 A2.5,2.5 0 0 1 646.5,213.96 " fill="none" style="stroke:#000000;stroke-width:1.5;"/><line style="stroke:#000000;stroke-width:1.5;" x1="644" x2="715" y1="236.4483" y2="236.4483"/><text fill="#000000" font-family="sans-serif" font-size="14" font-weight="bold" lengthAdjust="spacing" textLength="58" x="648" y="229.4952">testable</text></g><!--cluster bonus.dart--><g id="cluster_bonus.dart"><path d="M670.5,445.91 L747.5,445.91 A3.75,3.75 0 0 1 750,448.41 L757,468.3983 L1753.5,468.3983 A2.5,2.5 0 0 1 1756,470.8983 L1756,650.41 A2.5,2.5 0 0 1 1753.5,652.91 L670.5,652.91 A2.5,2.5 0 0 1 668,650.41 L668,448.41 A2.5,2.5 0 0 1 670.5,445.91 " fill="none" style="stroke:#000000;stroke-width:1.5;"/><line style="stroke:#000000;stroke-width:1.5;" x1="668" x2="757" y1="468.3983" y2="468.3983"/><text fill="#000000" font-family="sans-serif" font-size="14" font-weight="bold" lengthAdjust="spacing" textLength="76" x="672" y="461.4452">bonus.dart</text></g><!--cluster amulet.dart--><g id="cluster_amulet.dart"><path d="M754.5,256.96 L837.5,256.96 A3.75,3.75 0 0 1 840,259.46 L847,279.4483 L1001.5,279.4483 A2.5,2.5 0 0 1 1004,281.9483 L1004,419.41 A2.5,2.5 0 0 1 1001.5,421.91 L754.5,421.91 A2.5,2.5 0 0 1 752,419.41 L752,259.46 A2.5,2.5 0 0 1 754.5,256.96 " fill="none" style="stroke:#000000;stroke-width:1.5;"/><line style="stroke:#000000;stroke-width:1.5;" x1="752" x2="847" y1="279.4483" y2="279.4483"/><text fill="#000000" font-family="sans-serif" font-size="14" font-weight="bold" lengthAdjust="spacing" textLength="82" x="756" y="272.4952">amulet.dart</text></g><!--cluster bonus_specification.dart--><g id="cluster_bonus_specification.dart"><path d="M1044.5,273.45 L1220.5,273.45 A3.75,3.75 0 0 1 1223,275.95 L1230,295.9383 L1245.5,295.9383 A2.5,2.5 0 0 1 1248,298.4383 L1248,402.92 A2.5,2.5 0 0 1 1245.5,405.42 L1044.5,405.42 A2.5,2.5 0 0 1 1042,402.92 L1042,275.95 A2.5,2.5 0 0 1 1044.5,273.45 " fill="none" style="stroke:#000000;stroke-width:1.5;"/><line style="stroke:#000000;stroke-width:1.5;" x1="1042" x2="1230" y1="295.9383" y2="295.9383"/><text fill="#000000" font-family="sans-serif" font-size="14" font-weight="bold" lengthAdjust="spacing" textLength="175" x="1046" y="288.9852">bonus_specification.dart</text></g><!--cluster specification_logic.dart--><g id="cluster_specification_logic.dart"><path d="M32.5,49 L199.5,49 A3.75,3.75 0 0 1 202,51.5 L209,71.4883 L617.5,71.4883 A2.5,2.5 0 0 1 620,73.9883 L620,411.17 A2.5,2.5 0 0 1 617.5,413.67 L32.5,413.67 A2.5,2.5 0 0 1 30,411.17 L30,51.5 A2.5,2.5 0 0 1 32.5,49 " fill="none" style="stroke:#000000;stroke-width:1.5;"/><line style="stroke:#000000;stroke-width:1.5;" x1="30" x2="209" y1="71.4883" y2="71.4883"/><text fill="#000000" font-family="sans-serif" font-size="14" font-weight="bold" lengthAdjust="spacing" textLength="166" x="34" y="64.5352">specification_logic.dart</text></g><!--class Bonus--><g id="elem_Bonus"><rect codeLine="3" fill="#F1F1F1" height="48" id="Bonus" rx="2.5" ry="2.5" style="stroke:#181818;stroke-width:0.5;" width="74" x="1115" y="480.91"/><ellipse cx="1130" cy="496.91" fill="#ADD1B2" rx="11" ry="11" style="stroke:#181818;stroke-width:1.0;"/><path d="M1132.4731,503.0531 Q1131.8921,503.3519 1131.2529,503.5013 Q1130.6138,503.6507 1129.9082,503.6507 Q1127.4014,503.6507 1126.0815,501.9989 Q1124.7617,500.347 1124.7617,497.2259 Q1124.7617,494.0965 1126.0815,492.4447 Q1127.4014,490.7928 1129.9082,490.7928 Q1130.6138,490.7928 1131.2612,490.9422 Q1131.9087,491.0916 1132.4731,491.3905 L1132.4731,494.1131 Q1131.8423,493.5321 1131.2488,493.2623 Q1130.6553,492.9925 1130.0244,492.9925 Q1128.6797,492.9925 1127.9949,494.0592 Q1127.3101,495.1258 1127.3101,497.2259 Q1127.3101,499.3177 1127.9949,500.3844 Q1128.6797,501.451 1130.0244,501.451 Q1130.6553,501.451 1131.2488,501.1812 Q1131.8423,500.9115 1132.4731,500.3304 Z " fill="#000000"/><text fill="#000000" font-family="sans-serif" font-size="14" lengthAdjust="spacing" textLength="42" x="1144" y="502.201">Bonus</text><line style="stroke:#181818;stroke-width:0.5;" x1="1116" x2="1188" y1="512.91" y2="512.91"/><line style="stroke:#181818;stroke-width:0.5;" x1="1116" x2="1188" y1="520.91" y2="520.91"/></g><!--class LuckyBonus--><g id="elem_LuckyBonus"><rect codeLine="6" fill="#F1F1F1" height="48" id="LuckyBonus" rx="2.5" ry="2.5" style="stroke:#181818;stroke-width:0.5;" width="112" x="684" y="588.91"/><ellipse cx="699" cy="604.91" fill="#ADD1B2" rx="11" ry="11" style="stroke:#181818;stroke-width:1.0;"/><path d="M701.4731,611.0531 Q700.8921,611.3519 700.2529,611.5013 Q699.6138,611.6507 698.9082,611.6507 Q696.4014,611.6507 695.0815,609.9989 Q693.7617,608.347 693.7617,605.2259 Q693.7617,602.0965 695.0815,600.4447 Q696.4014,598.7928 698.9082,598.7928 Q699.6138,598.7928 700.2612,598.9422 Q700.9087,599.0916 701.4731,599.3905 L701.4731,602.1131 Q700.8423,601.5321 700.2488,601.2623 Q699.6553,600.9925 699.0244,600.9925 Q697.6797,600.9925 696.9949,602.0592 Q696.3101,603.1258 696.3101,605.2259 Q696.3101,607.3177 696.9949,608.3844 Q697.6797,609.451 699.0244,609.451 Q699.6553,609.451 700.2488,609.1812 Q700.8423,608.9115 701.4731,608.3304 Z " fill="#000000"/><text fill="#000000" font-family="sans-serif" font-size="14" lengthAdjust="spacing" textLength="80" x="713" y="610.201">LuckyBonus</text><line style="stroke:#181818;stroke-width:0.5;" x1="685" x2="795" y1="620.91" y2="620.91"/><line style="stroke:#181818;stroke-width:0.5;" x1="685" x2="795" y1="628.91" y2="628.91"/></g><!--class ExperienceBonus--><g id="elem_ExperienceBonus"><rect codeLine="11" fill="#F1F1F1" height="48" id="ExperienceBonus" rx="2.5" ry="2.5" style="stroke:#181818;stroke-width:0.5;" width="150" x="831" y="588.91"/><ellipse cx="846" cy="604.91" fill="#ADD1B2" rx="11" ry="11" style="stroke:#181818;stroke-width:1.0;"/><path d="M848.4731,611.0531 Q847.8921,611.3519 847.2529,611.5013 Q846.6138,611.6507 845.9082,611.6507 Q843.4014,611.6507 842.0815,609.9989 Q840.7617,608.347 840.7617,605.2259 Q840.7617,602.0965 842.0815,600.4447 Q843.4014,598.7928 845.9082,598.7928 Q846.6138,598.7928 847.2612,598.9422 Q847.9087,599.0916 848.4731,599.3905 L848.4731,602.1131 Q847.8423,601.5321 847.2488,601.2623 Q846.6553,600.9925 846.0244,600.9925 Q844.6797,600.9925 843.9949,602.0592 Q843.3101,603.1258 843.3101,605.2259 Q843.3101,607.3177 843.9949,608.3844 Q844.6797,609.451 846.0244,609.451 Q846.6553,609.451 847.2488,609.1812 Q847.8423,608.9115 848.4731,608.3304 Z " fill="#000000"/><text fill="#000000" font-family="sans-serif" font-size="14" lengthAdjust="spacing" textLength="118" x="860" y="610.201">ExperienceBonus</text><line style="stroke:#181818;stroke-width:0.5;" x1="832" x2="980" y1="620.91" y2="620.91"/><line style="stroke:#181818;stroke-width:0.5;" x1="832" x2="980" y1="628.91" y2="628.91"/></g><!--class MoneyBonus--><g id="elem_MoneyBonus"><rect codeLine="16" fill="#F1F1F1" height="48" id="MoneyBonus" rx="2.5" ry="2.5" style="stroke:#181818;stroke-width:0.5;" width="119" x="1015.5" y="588.91"/><ellipse cx="1030.5" cy="604.91" fill="#ADD1B2" rx="11" ry="11" style="stroke:#181818;stroke-width:1.0;"/><path d="M1032.9731,611.0531 Q1032.3921,611.3519 1031.7529,611.5013 Q1031.1138,611.6507 1030.4082,611.6507 Q1027.9014,611.6507 1026.5815,609.9989 Q1025.2617,608.347 1025.2617,605.2259 Q1025.2617,602.0965 1026.5815,600.4447 Q1027.9014,598.7928 1030.4082,598.7928 Q1031.1138,598.7928 1031.7612,598.9422 Q1032.4087,599.0916 1032.9731,599.3905 L1032.9731,602.1131 Q1032.3423,601.5321 1031.7488,601.2623 Q1031.1553,600.9925 1030.5244,600.9925 Q1029.1797,600.9925 1028.4949,602.0592 Q1027.8101,603.1258 1027.8101,605.2259 Q1027.8101,607.3177 1028.4949,608.3844 Q1029.1797,609.451 1030.5244,609.451 Q1031.1553,609.451 1031.7488,609.1812 Q1032.3423,608.9115 1032.9731,608.3304 Z " fill="#000000"/><text fill="#000000" font-family="sans-serif" font-size="14" lengthAdjust="spacing" textLength="87" x="1044.5" y="610.201">MoneyBonus</text><line style="stroke:#181818;stroke-width:0.5;" x1="1016.5" x2="1133.5" y1="620.91" y2="620.91"/><line style="stroke:#181818;stroke-width:0.5;" x1="1016.5" x2="1133.5" y1="628.91" y2="628.91"/></g><!--class HealthBonus--><g id="elem_HealthBonus"><rect codeLine="21" fill="#F1F1F1" height="48" id="HealthBonus" rx="2.5" ry="2.5" style="stroke:#181818;stroke-width:0.5;" width="118" x="1170" y="588.91"/><ellipse cx="1185" cy="604.91" fill="#ADD1B2" rx="11" ry="11" style="stroke:#181818;stroke-width:1.0;"/><path d="M1187.4731,611.0531 Q1186.8921,611.3519 1186.2529,611.5013 Q1185.6138,611.6507 1184.9082,611.6507 Q1182.4014,611.6507 1181.0815,609.9989 Q1179.7617,608.347 1179.7617,605.2259 Q1179.7617,602.0965 1181.0815,600.4447 Q1182.4014,598.7928 1184.9082,598.7928 Q1185.6138,598.7928 1186.2612,598.9422 Q1186.9087,599.0916 1187.4731,599.3905 L1187.4731,602.1131 Q1186.8423,601.5321 1186.2488,601.2623 Q1185.6553,600.9925 1185.0244,600.9925 Q1183.6797,600.9925 1182.9949,602.0592 Q1182.3101,603.1258 1182.3101,605.2259 Q1182.3101,607.3177 1182.9949,608.3844 Q1183.6797,609.451 1185.0244,609.451 Q1185.6553,609.451 1186.2488,609.1812 Q1186.8423,608.9115 1187.4731,608.3304 Z " fill="#000000"/><text fill="#000000" font-family="sans-serif" font-size="14" lengthAdjust="spacing" textLength="86" x="1199" y="610.201">HealthBonus</text><line style="stroke:#181818;stroke-width:0.5;" x1="1171" x2="1287" y1="620.91" y2="620.91"/><line style="stroke:#181818;stroke-width:0.5;" x1="1171" x2="1287" y1="628.91" y2="628.91"/></g><!--class StaminaBonus--><g id="elem_StaminaBonus"><rect codeLine="26" fill="#F1F1F1" height="48" id="StaminaBonus" rx="2.5" ry="2.5" style="stroke:#181818;stroke-width:0.5;" width="129" x="1323.5" y="588.91"/><ellipse cx="1338.5" cy="604.91" fill="#ADD1B2" rx="11" ry="11" style="stroke:#181818;stroke-width:1.0;"/><path d="M1340.9731,611.0531 Q1340.3921,611.3519 1339.7529,611.5013 Q1339.1138,611.6507 1338.4082,611.6507 Q1335.9014,611.6507 1334.5815,609.9989 Q1333.2617,608.347 1333.2617,605.2259 Q1333.2617,602.0965 1334.5815,600.4447 Q1335.9014,598.7928 1338.4082,598.7928 Q1339.1138,598.7928 1339.7612,598.9422 Q1340.4087,599.0916 1340.9731,599.3905 L1340.9731,602.1131 Q1340.3423,601.5321 1339.7488,601.2623 Q1339.1553,600.9925 1338.5244,600.9925 Q1337.1797,600.9925 1336.4949,602.0592 Q1335.8101,603.1258 1335.8101,605.2259 Q1335.8101,607.3177 1336.4949,608.3844 Q1337.1797,609.451 1338.5244,609.451 Q1339.1553,609.451 1339.7488,609.1812 Q1340.3423,608.9115 1340.9731,608.3304 Z " fill="#000000"/><text fill="#000000" font-family="sans-serif" font-size="14" lengthAdjust="spacing" textLength="97" x="1352.5" y="610.201">StaminaBonus</text><line style="stroke:#181818;stroke-width:0.5;" x1="1324.5" x2="1451.5" y1="620.91" y2="620.91"/><line style="stroke:#181818;stroke-width:0.5;" x1="1324.5" x2="1451.5" y1="628.91" y2="628.91"/></g><!--class AimBonus--><g id="elem_AimBonus"><rect codeLine="31" fill="#F1F1F1" height="48" id="AimBonus" rx="2.5" ry="2.5" style="stroke:#181818;stroke-width:0.5;" width="101" x="1487.5" y="588.91"/><ellipse cx="1502.5" cy="604.91" fill="#ADD1B2" rx="11" ry="11" style="stroke:#181818;stroke-width:1.0;"/><path d="M1504.9731,611.0531 Q1504.3921,611.3519 1503.7529,611.5013 Q1503.1138,611.6507 1502.4082,611.6507 Q1499.9014,611.6507 1498.5815,609.9989 Q1497.2617,608.347 1497.2617,605.2259 Q1497.2617,602.0965 1498.5815,600.4447 Q1499.9014,598.7928 1502.4082,598.7928 Q1503.1138,598.7928 1503.7612,598.9422 Q1504.4087,599.0916 1504.9731,599.3905 L1504.9731,602.1131 Q1504.3423,601.5321 1503.7488,601.2623 Q1503.1553,600.9925 1502.5244,600.9925 Q1501.1797,600.9925 1500.4949,602.0592 Q1499.8101,603.1258 1499.8101,605.2259 Q1499.8101,607.3177 1500.4949,608.3844 Q1501.1797,609.451 1502.5244,609.451 Q1503.1553,609.451 1503.7488,609.1812 Q1504.3423,608.9115 1504.9731,608.3304 Z " fill="#000000"/><text fill="#000000" font-family="sans-serif" font-size="14" lengthAdjust="spacing" textLength="69" x="1516.5" y="610.201">AimBonus</text><line style="stroke:#181818;stroke-width:0.5;" x1="1488.5" x2="1587.5" y1="620.91" y2="620.91"/><line style="stroke:#181818;stroke-width:0.5;" x1="1488.5" x2="1587.5" y1="628.91" y2="628.91"/></g><!--class SpeedBonus--><g id="elem_SpeedBonus"><rect codeLine="36" fill="#F1F1F1" height="48" id="SpeedBonus" rx="2.5" ry="2.5" style="stroke:#181818;stroke-width:0.5;" width="116" x="1624" y="588.91"/><ellipse cx="1639" cy="604.91" fill="#ADD1B2" rx="11" ry="11" style="stroke:#181818;stroke-width:1.0;"/><path d="M1641.4731,611.0531 Q1640.8921,611.3519 1640.2529,611.5013 Q1639.6138,611.6507 1638.9082,611.6507 Q1636.4014,611.6507 1635.0815,609.9989 Q1633.7617,608.347 1633.7617,605.2259 Q1633.7617,602.0965 1635.0815,600.4447 Q1636.4014,598.7928 1638.9082,598.7928 Q1639.6138,598.7928 1640.2612,598.9422 Q1640.9087,599.0916 1641.4731,599.3905 L1641.4731,602.1131 Q1640.8423,601.5321 1640.2488,601.2623 Q1639.6553,600.9925 1639.0244,600.9925 Q1637.6797,600.9925 1636.9949,602.0592 Q1636.3101,603.1258 1636.3101,605.2259 Q1636.3101,607.3177 1636.9949,608.3844 Q1637.6797,609.451 1639.0244,609.451 Q1639.6553,609.451 1640.2488,609.1812 Q1640.8423,608.9115 1641.4731,608.3304 Z " fill="#000000"/><text fill="#000000" font-family="sans-serif" font-size="14" lengthAdjust="spacing" textLength="84" x="1653" y="610.201">SpeedBonus</text><line style="stroke:#181818;stroke-width:0.5;" x1="1625" x2="1739" y1="620.91" y2="620.91"/><line style="stroke:#181818;stroke-width:0.5;" x1="1625" x2="1739" y1="628.91" y2="628.91"/></g><!--class Amulet--><g id="elem_Amulet"><rect codeLine="41" fill="#F1F1F1" height="113.9531" id="Amulet" rx="2.5" ry="2.5" style="stroke:#181818;stroke-width:0.5;" width="220" x="768" y="291.96"/><ellipse cx="849.25" cy="307.96" fill="#ADD1B2" rx="11" ry="11" style="stroke:#181818;stroke-width:1.0;"/><path d="M851.7231,314.1031 Q851.1421,314.4019 850.5029,314.5513 Q849.8638,314.7007 849.1582,314.7007 Q846.6514,314.7007 845.3315,313.0489 Q844.0117,311.397 844.0117,308.2759 Q844.0117,305.1465 845.3315,303.4947 Q846.6514,301.8428 849.1582,301.8428 Q849.8638,301.8428 850.5112,301.9922 Q851.1587,302.1416 851.7231,302.4405 L851.7231,305.1631 Q851.0923,304.5821 850.4988,304.3123 Q849.9053,304.0425 849.2744,304.0425 Q847.9297,304.0425 847.2449,305.1092 Q846.5601,306.1758 846.5601,308.2759 Q846.5601,310.3677 847.2449,311.4344 Q847.9297,312.501 849.2744,312.501 Q849.9053,312.501 850.4988,312.2312 Q851.0923,311.9615 851.7231,311.3804 Z " fill="#000000"/><text fill="#000000" font-family="sans-serif" font-size="14" lengthAdjust="spacing" textLength="49" x="869.75" y="313.251">Amulet</text><line style="stroke:#181818;stroke-width:0.5;" x1="769" x2="987" y1="323.96" y2="323.96"/><rect fill="none" height="6" style="stroke:#C82930;stroke-width:1.0;" width="6" x="776" y="334.7041"/><text fill="#000000" font-family="sans-serif" font-size="14" lengthAdjust="spacing" textLength="128" x="788" y="341.4952">String _nameValue</text><rect fill="none" height="6" style="stroke:#C82930;stroke-width:1.0;" width="6" x="776" y="351.1924"/><text fill="#000000" font-family="sans-serif" font-size="14" lengthAdjust="spacing" textLength="194" x="788" y="357.9834">List&lt;Bonus&gt; _bonusesValue</text><ellipse cx="779" cy="370.6807" fill="none" rx="3" ry="3" style="stroke:#038048;stroke-width:1.0;"/><text fill="#000000" font-family="sans-serif" font-size="14" lengthAdjust="spacing" textLength="106" x="788" y="374.4717">String getName</text><ellipse cx="779" cy="387.169" fill="none" rx="3" ry="3" style="stroke:#038048;stroke-width:1.0;"/><text fill="#000000" font-family="sans-serif" font-size="14" lengthAdjust="spacing" textLength="172" x="788" y="390.96">List&lt;Bonus&gt; getFeatures</text><line style="stroke:#181818;stroke-width:0.5;" x1="769" x2="987" y1="397.9131" y2="397.9131"/></g><!--class BonusSpecification--><g id="elem_BonusSpecification"><rect codeLine="48" fill="#F1F1F1" height="80.9766" id="BonusSpecification" rx="2.5" ry="2.5" style="stroke:#181818;stroke-width:0.5;" width="173" x="1058.5" y="308.45"/><ellipse cx="1078.9" cy="324.45" fill="#ADD1B2" rx="11" ry="11" style="stroke:#181818;stroke-width:1.0;"/><path d="M1081.3731,330.5931 Q1080.7921,330.8919 1080.1529,331.0413 Q1079.5138,331.1907 1078.8082,331.1907 Q1076.3014,331.1907 1074.9815,329.5389 Q1073.6617,327.887 1073.6617,324.7659 Q1073.6617,321.6365 1074.9815,319.9847 Q1076.3014,318.3328 1078.8082,318.3328 Q1079.5138,318.3328 1080.1612,318.4822 Q1080.8087,318.6316 1081.3731,318.9305 L1081.3731,321.6531 Q1080.7423,321.0721 1080.1488,320.8023 Q1079.5553,320.5325 1078.9244,320.5325 Q1077.5797,320.5325 1076.8949,321.5992 Q1076.2101,322.6658 1076.2101,324.7659 Q1076.2101,326.8577 1076.8949,327.9244 Q1077.5797,328.991 1078.9244,328.991 Q1079.5553,328.991 1080.1488,328.7212 Q1080.7423,328.4515 1081.3731,327.8704 Z " fill="#000000"/><text fill="#000000" font-family="sans-serif" font-size="14" lengthAdjust="spacing" textLength="129" x="1094.1" y="329.741">BonusSpecification</text><line style="stroke:#181818;stroke-width:0.5;" x1="1059.5" x2="1230.5" y1="340.45" y2="340.45"/><ellipse cx="1069.5" cy="354.1941" fill="none" rx="3" ry="3" style="stroke:#038048;stroke-width:1.0;"/><text fill="#000000" font-family="sans-serif" font-size="14" lengthAdjust="spacing" textLength="147" x="1078.5" y="357.9852">Bonus requiredBonus</text><line style="stroke:#181818;stroke-width:0.5;" x1="1059.5" x2="1230.5" y1="364.9383" y2="364.9383"/><ellipse cx="1069.5" cy="378.6824" fill="#84BE84" rx="3" ry="3" style="stroke:#038048;stroke-width:1.0;"/><text fill="#000000" font-family="sans-serif" font-size="14" lengthAdjust="spacing" textLength="129" x="1078.5" y="382.4734">bool isSatisfiedBy()</text></g><!--class Specification--><g id="elem_Specification"><rect codeLine="56" fill="#F1F1F1" height="113.9531" id="Specification" rx="2.5" ry="2.5" style="stroke:#181818;stroke-width:0.5;" width="155" x="252.5" y="84"/><ellipse cx="283.7" cy="100" fill="#A9DCDF" rx="11" ry="11" style="stroke:#181818;stroke-width:1.0;"/><path d="M283.5633,95.3481 L282.4095,100.4199 L284.7254,100.4199 Z M282.0691,93.1069 L285.0657,93.1069 L288.4109,105.5 L285.9622,105.5 L285.1985,102.437 L281.9197,102.437 L281.1727,105.5 L278.7239,105.5 Z " fill="#000000"/><text fill="#000000" font-family="sans-serif" font-size="14" font-style="italic" lengthAdjust="spacing" textLength="87" x="301.3" y="105.291">Specification</text><line style="stroke:#181818;stroke-width:0.5;" x1="253.5" x2="406.5" y1="116" y2="116"/><line style="stroke:#181818;stroke-width:0.5;" x1="253.5" x2="406.5" y1="124" y2="124"/><ellipse cx="263.5" cy="137.7441" fill="#84BE84" rx="3" ry="3" style="stroke:#038048;stroke-width:1.0;"/><text fill="#000000" font-family="sans-serif" font-size="14" lengthAdjust="spacing" textLength="129" x="272.5" y="141.5352">bool isSatisfiedBy()</text><ellipse cx="263.5" cy="154.2324" fill="#84BE84" rx="3" ry="3" style="stroke:#038048;stroke-width:1.0;"/><text fill="#000000" font-family="sans-serif" font-size="14" lengthAdjust="spacing" textLength="127" x="272.5" y="158.0234">Specification and()</text><ellipse cx="263.5" cy="170.7207" fill="#84BE84" rx="3" ry="3" style="stroke:#038048;stroke-width:1.0;"/><text fill="#000000" font-family="sans-serif" font-size="14" lengthAdjust="spacing" textLength="116" x="272.5" y="174.5117">Specification or()</text><ellipse cx="263.5" cy="187.209" fill="#84BE84" rx="3" ry="3" style="stroke:#038048;stroke-width:1.0;"/><text fill="#000000" font-family="sans-serif" font-size="14" lengthAdjust="spacing" textLength="124" x="272.5" y="191">Specification not()</text></g><!--class AndSpecification--><g id="elem_AndSpecification"><rect codeLine="63" fill="#F1F1F1" height="97.4648" id="AndSpecification" rx="2.5" ry="2.5" style="stroke:#181818;stroke-width:0.5;" width="166" x="46" y="300.2"/><ellipse cx="69.55" cy="316.2" fill="#ADD1B2" rx="11" ry="11" style="stroke:#181818;stroke-width:1.0;"/><path d="M72.0231,322.3431 Q71.4421,322.6419 70.8029,322.7913 Q70.1638,322.9407 69.4582,322.9407 Q66.9514,322.9407 65.6315,321.2889 Q64.3117,319.637 64.3117,316.5159 Q64.3117,313.3865 65.6315,311.7347 Q66.9514,310.0828 69.4582,310.0828 Q70.1638,310.0828 70.8112,310.2322 Q71.4587,310.3816 72.0231,310.6805 L72.0231,313.4031 Q71.3923,312.8221 70.7988,312.5523 Q70.2053,312.2825 69.5744,312.2825 Q68.2297,312.2825 67.5449,313.3492 Q66.8601,314.4158 66.8601,316.5159 Q66.8601,318.6077 67.5449,319.6744 Q68.2297,320.741 69.5744,320.741 Q70.2053,320.741 70.7988,320.4712 Q71.3923,320.2015 72.0231,319.6204 Z " fill="#000000"/><text fill="#000000" font-family="sans-serif" font-size="14" lengthAdjust="spacing" textLength="115" x="85.45" y="321.491">AndSpecification</text><line style="stroke:#181818;stroke-width:0.5;" x1="47" x2="211" y1="332.2" y2="332.2"/><ellipse cx="57" cy="345.9441" fill="none" rx="3" ry="3" style="stroke:#038048;stroke-width:1.0;"/><text fill="#000000" font-family="sans-serif" font-size="14" lengthAdjust="spacing" textLength="118" x="66" y="349.7352">Specification first</text><ellipse cx="57" cy="362.4324" fill="none" rx="3" ry="3" style="stroke:#038048;stroke-width:1.0;"/><text fill="#000000" font-family="sans-serif" font-size="14" lengthAdjust="spacing" textLength="140" x="66" y="366.2234">Specification second</text><line style="stroke:#181818;stroke-width:0.5;" x1="47" x2="211" y1="373.1766" y2="373.1766"/><ellipse cx="57" cy="386.9207" fill="#84BE84" rx="3" ry="3" style="stroke:#038048;stroke-width:1.0;"/><text fill="#000000" font-family="sans-serif" font-size="14" lengthAdjust="spacing" textLength="129" x="66" y="390.7117">bool isSatisfiedBy()</text></g><!--class OrSpecification--><g id="elem_OrSpecification"><rect codeLine="72" fill="#F1F1F1" height="97.4648" id="OrSpecification" rx="2.5" ry="2.5" style="stroke:#181818;stroke-width:0.5;" width="166" x="247" y="300.2"/><ellipse cx="275.5" cy="316.2" fill="#ADD1B2" rx="11" ry="11" style="stroke:#181818;stroke-width:1.0;"/><path d="M277.9731,322.3431 Q277.3921,322.6419 276.7529,322.7913 Q276.1138,322.9407 275.4082,322.9407 Q272.9014,322.9407 271.5815,321.2889 Q270.2617,319.637 270.2617,316.5159 Q270.2617,313.3865 271.5815,311.7347 Q272.9014,310.0828 275.4082,310.0828 Q276.1138,310.0828 276.7612,310.2322 Q277.4087,310.3816 277.9731,310.6805 L277.9731,313.4031 Q277.3423,312.8221 276.7488,312.5523 Q276.1553,312.2825 275.5244,312.2825 Q274.1797,312.2825 273.4949,313.3492 Q272.8101,314.4158 272.8101,316.5159 Q272.8101,318.6077 273.4949,319.6744 Q274.1797,320.741 275.5244,320.741 Q276.1553,320.741 276.7488,320.4712 Q277.3423,320.2015 277.9731,319.6204 Z " fill="#000000"/><text fill="#000000" font-family="sans-serif" font-size="14" lengthAdjust="spacing" textLength="104" x="292.5" y="321.491">OrSpecification</text><line style="stroke:#181818;stroke-width:0.5;" x1="248" x2="412" y1="332.2" y2="332.2"/><ellipse cx="258" cy="345.9441" fill="none" rx="3" ry="3" style="stroke:#038048;stroke-width:1.0;"/><text fill="#000000" font-family="sans-serif" font-size="14" lengthAdjust="spacing" textLength="118" x="267" y="349.7352">Specification first</text><ellipse cx="258" cy="362.4324" fill="none" rx="3" ry="3" style="stroke:#038048;stroke-width:1.0;"/><text fill="#000000" font-family="sans-serif" font-size="14" lengthAdjust="spacing" textLength="140" x="267" y="366.2234">Specification second</text><line style="stroke:#181818;stroke-width:0.5;" x1="248" x2="412" y1="373.1766" y2="373.1766"/><ellipse cx="258" cy="386.9207" fill="#84BE84" rx="3" ry="3" style="stroke:#038048;stroke-width:1.0;"/><text fill="#000000" font-family="sans-serif" font-size="14" lengthAdjust="spacing" textLength="129" x="267" y="390.7117">bool isSatisfiedBy()</text></g><!--class NotSpecification--><g id="elem_NotSpecification"><rect codeLine="81" fill="#F1F1F1" height="80.9766" id="NotSpecification" rx="2.5" ry="2.5" style="stroke:#181818;stroke-width:0.5;" width="155" x="448.5" y="308.45"/><ellipse cx="468.9" cy="324.45" fill="#ADD1B2" rx="11" ry="11" style="stroke:#181818;stroke-width:1.0;"/><path d="M471.3731,330.5931 Q470.7921,330.8919 470.1529,331.0413 Q469.5138,331.1907 468.8082,331.1907 Q466.3014,331.1907 464.9815,329.5389 Q463.6617,327.887 463.6617,324.7659 Q463.6617,321.6365 464.9815,319.9847 Q466.3014,318.3328 468.8082,318.3328 Q469.5138,318.3328 470.1612,318.4822 Q470.8087,318.6316 471.3731,318.9305 L471.3731,321.6531 Q470.7423,321.0721 470.1488,320.8023 Q469.5553,320.5325 468.9244,320.5325 Q467.5797,320.5325 466.8949,321.5992 Q466.2101,322.6658 466.2101,324.7659 Q466.2101,326.8577 466.8949,327.9244 Q467.5797,328.991 468.9244,328.991 Q469.5553,328.991 470.1488,328.7212 Q470.7423,328.4515 471.3731,327.8704 Z " fill="#000000"/><text fill="#000000" font-family="sans-serif" font-size="14" lengthAdjust="spacing" textLength="111" x="484.1" y="329.741">NotSpecification</text><line style="stroke:#181818;stroke-width:0.5;" x1="449.5" x2="602.5" y1="340.45" y2="340.45"/><ellipse cx="459.5" cy="354.1941" fill="none" rx="3" ry="3" style="stroke:#038048;stroke-width:1.0;"/><text fill="#000000" font-family="sans-serif" font-size="14" lengthAdjust="spacing" textLength="122" x="468.5" y="357.9852">Specification spec</text><line style="stroke:#181818;stroke-width:0.5;" x1="449.5" x2="602.5" y1="364.9383" y2="364.9383"/><ellipse cx="459.5" cy="378.6824" fill="#84BE84" rx="3" ry="3" style="stroke:#038048;stroke-width:1.0;"/><text fill="#000000" font-family="sans-serif" font-size="14" lengthAdjust="spacing" textLength="129" x="468.5" y="382.4734">bool isSatisfiedBy()</text></g><!--reverse link Bonus to LuckyBonus--><g id="link_Bonus_LuckyBonus"><path codeLine="9" d="M1096.9983,518.3223 C1034.4383,532.5523 922.43,558.78 814,588.91 C808.3,590.5 802.37,592.21 796.46,593.98 " fill="none" id="Bonus-backto-LuckyBonus" style="stroke:#181818;stroke-width:1.0;"/><polygon fill="none" points="1114.55,514.33,1095.6675,512.4718,1098.3291,524.1729,1114.55,514.33" style="stroke:#181818;stroke-width:1.0;"/></g><!--reverse link Bonus to ExperienceBonus--><g id="link_Bonus_ExperienceBonus"><path codeLine="14" d="M1098.1089,529.1321 C1056.9789,546.8521 1007.02,568.38 960.17,588.57 " fill="none" id="Bonus-backto-ExperienceBonus" style="stroke:#181818;stroke-width:1.0;"/><polygon fill="none" points="1114.64,522.01,1095.7349,523.6217,1100.483,534.6424,1114.64,522.01" style="stroke:#181818;stroke-width:1.0;"/></g><!--reverse link Bonus to MoneyBonus--><g id="link_Bonus_MoneyBonus"><path codeLine="19" d="M1124.5227,543.7344 C1111.6827,561.4144 1104.69,571.04 1091.86,588.7 " fill="none" id="Bonus-backto-MoneyBonus" style="stroke:#181818;stroke-width:1.0;"/><polygon fill="none" points="1135.1,529.17,1119.6679,540.2086,1129.3775,547.2601,1135.1,529.17" style="stroke:#181818;stroke-width:1.0;"/></g><!--reverse link Bonus to HealthBonus--><g id="link_Bonus_HealthBonus"><path codeLine="24" d="M1179.4773,543.7344 C1192.3173,561.4144 1199.31,571.04 1212.14,588.7 " fill="none" id="Bonus-backto-HealthBonus" style="stroke:#181818;stroke-width:1.0;"/><polygon fill="none" points="1168.9,529.17,1174.6225,547.2601,1184.3321,540.2086,1168.9,529.17" style="stroke:#181818;stroke-width:1.0;"/></g><!--reverse link Bonus to StaminaBonus--><g id="link_Bonus_StaminaBonus"><path codeLine="29" d="M1205.8114,530.0814 C1245.3314,547.8214 1291.51,568.57 1335.86,588.49 " fill="none" id="Bonus-backto-StaminaBonus" style="stroke:#181818;stroke-width:1.0;"/><polygon fill="none" points="1189.39,522.71,1203.3543,535.5552,1208.2685,524.6075,1189.39,522.71" style="stroke:#181818;stroke-width:1.0;"/></g><!--reverse link Bonus to AimBonus--><g id="link_Bonus_AimBonus"><path codeLine="34" d="M1206.9527,518.9719 C1266.6427,533.3019 1369.42,558.82 1470,588.91 C1475.61,590.59 1481.45,592.43 1487.26,594.31 " fill="none" id="Bonus-backto-AimBonus" style="stroke:#181818;stroke-width:1.0;"/><polygon fill="none" points="1189.45,514.77,1205.552,524.8062,1208.3533,513.1377,1189.45,514.77" style="stroke:#181818;stroke-width:1.0;"/></g><!--reverse link Bonus to SpeedBonus--><g id="link_Bonus_SpeedBonus"><path codeLine="39" d="M1207.1769,513.9096 C1285.1869,525.4296 1452.97,551.89 1606,588.91 C1611.76,590.3 1617.73,591.88 1623.68,593.53 " fill="none" id="Bonus-backto-SpeedBonus" style="stroke:#181818;stroke-width:1.0;"/><polygon fill="none" points="1189.37,511.28,1206.3004,519.8452,1208.0534,507.974,1189.37,511.28" style="stroke:#181818;stroke-width:1.0;"/></g><!--reverse link BonusSpecification to Bonus--><g id="link_BonusSpecification_Bonus"><path codeLine="53" d="M1147.3481,401.5775 C1148.6681,430.4475 1149.85,456.57 1150.94,480.67 " fill="none" id="BonusSpecification-backto-Bonus" style="stroke:#181818;stroke-width:1.0;"/><polygon fill="none" points="1146.8,389.59,1143.0782,395.7664,1147.3481,401.5775,1151.0699,395.401,1146.8,389.59" style="stroke:#181818;stroke-width:1.0;"/></g><!--reverse link Specification to BonusSpecification--><g id="link_Specification_BonusSpecification"><path codeLine="54" d="M425.7373,143.0895 C579.8273,145.7395 900.13,156.84 1004,205.96 C1051.89,228.61 1092.76,274.65 1117.98,308.18 " fill="none" id="Specification-backto-BonusSpecification" style="stroke:#181818;stroke-width:1.0;"/><polygon fill="none" points="407.74,142.78,425.6342,149.0886,425.8405,137.0904,407.74,142.78" style="stroke:#181818;stroke-width:1.0;"/></g><!--reverse link AndSpecification to Specification--><g id="link_AndSpecification_Specification"><path codeLine="69" d="M178.1249,290.0916 C198.6849,260.7416 217.57,233.5 246.5,205.96 C249.21,203.38 252.03,200.85 254.94,198.37 " fill="none" id="AndSpecification-backto-Specification" style="stroke:#181818;stroke-width:1.0;"/><polygon fill="none" points="171.24,299.92,177.9586,297.3008,178.1249,290.0916,171.4063,292.7108,171.24,299.92" style="stroke:#181818;stroke-width:1.0;"/></g><!--reverse link Specification to AndSpecification--><g id="link_Specification_AndSpecification"><path codeLine="70" d="M236.9642,184.5711 C222.4442,193.6211 223.45,194.58 211.5,205.96 C182.57,233.5 156.8,270.57 141.09,299.92 " fill="none" id="Specification-backto-AndSpecification" style="stroke:#181818;stroke-width:1.0;"/><polygon fill="none" points="252.24,175.05,233.7905,179.4791,240.1379,189.663,252.24,175.05" style="stroke:#181818;stroke-width:1.0;"/></g><!--reverse link OrSpecification to Specification--><g id="link_OrSpecification_Specification"><path codeLine="78" d="M342.1888,287.7922 C344.4188,257.4222 343.71,230.06 341.84,198.26 " fill="none" id="OrSpecification-backto-Specification" style="stroke:#181818;stroke-width:1.0;"/><polygon fill="none" points="341.31,299.76,345.7386,294.069,342.1888,287.7922,337.7601,293.4832,341.31,299.76" style="stroke:#181818;stroke-width:1.0;"/></g><!--reverse link Specification to OrSpecification--><g id="link_Specification_OrSpecification"><path codeLine="79" d="M317.1033,216.229 C315.2333,248.029 316.46,269.39 318.69,299.76 " fill="none" id="Specification-backto-OrSpecification" style="stroke:#181818;stroke-width:1.0;"/><polygon fill="none" points="318.16,198.26,311.1137,215.8767,323.093,216.5812,318.16,198.26" style="stroke:#181818;stroke-width:1.0;"/></g><!--reverse link NotSpecification to Specification--><g id="link_NotSpecification_Specification"><path codeLine="86" d="M514.7517,297.3314 C500.8817,266.9114 479.39,236.09 448.5,205.96 C436.69,194.44 422.47,183.9 407.96,174.85 " fill="none" id="NotSpecification-backto-Specification" style="stroke:#181818;stroke-width:1.0;"/><polygon fill="none" points="519.73,308.25,520.8804,301.1312,514.7517,297.3314,513.6013,304.4501,519.73,308.25" style="stroke:#181818;stroke-width:1.0;"/></g><!--reverse link Specification to NotSpecification--><g id="link_Specification_NotSpecification"><path codeLine="87" d="M418.7533,210.0662 C449.6433,240.1962 470.86,277.83 491.16,308.25 " fill="none" id="Specification-backto-NotSpecification" style="stroke:#181818;stroke-width:1.0;"/><polygon fill="none" points="405.14,198.29,414.8279,214.604,422.6787,205.5284,405.14,198.29" style="stroke:#181818;stroke-width:1.0;"/></g><!--SRC=[rLH1JiCm4Bpd5HOdK5KU45L8HG9nAEKGYMkqSRR58h63lP6e2dydJbkQD2rDN53epPbTPsPsLZP8J4AA9WEE0MQWWPHclkzvF05Zs8N9a8kPu412oP0mpH8Wz7r2Gn0bnIbICZVNCMZo_Ljxlc1BxzFn1vESlowgVt4JCFeO3a-WTXH_zvwX5YWvzkDWbz_HngEIs5C65Mf7yGy82RtqexxAxIW_84Y5X7xqryWT3On5se_uRsBNoMU8SKzptr9t40zfdY1jt9SVLZbZmu2qa7CMsfVz6P8SBJWHXaOboGqBItOqc-9WVMEED2tkMAJQNi3t29HhDDqVzh3MLnrMK2sif0_A0jFubWkzdec58wKI9anGj9gPA0gBowik6RKMeRgdjmxkuAqwdgYvuDlSgzoTLgUj8y-3o906Jkn8RgrrBWycOZUfsij0nljWfVUXKj4gLMUXOndlqrgdcGbjg0aRv4h6JilMHT2F2zOsWZzVjWwEJeZhIV-lj1fwpZsiNKCdP3LLT3miU_sNCsdoddie3KUUzmK0]--></g></svg>